<?xml version="1.0" standalone="no"?>
<!DOCTYPE svg PUBLIC "-//W3C//DTD SVG 20010904//EN"
 "http://www.w3.org/TR/2001/REC-SVG-20010904/DTD/svg10.dtd">
<svg version="1.0" xmlns="http://www.w3.org/2000/svg"
 width="430.000000pt" height="430.000000pt" viewBox="0 0 430.000000 430.000000"
 preserveAspectRatio="xMidYMid meet">
<metadata>
Created by potrace 1.14, written by Peter Selinger 2001-2017
</metadata>
<g transform="translate(0.000000,430.000000) scale(0.100000,-0.100000)"
fill="#000000" stroke="none">
<path d="M77 3092 c-12 -19 8 -256 30 -357 8 -38 17 -81 19 -95 20 -107 105
-327 180 -466 26 -49 50 -91 53 -94 3 -3 28 -39 56 -80 102 -153 271 -330 430
-452 259 -197 632 -360 920 -402 23 -4 51 -8 63 -11 57 -11 199 -19 322 -19
120 0 307 11 320 19 3 2 27 6 54 9 269 36 688 214 903 383 13 10 31 25 42 33
227 179 408 395 540 645 74 139 156 369 176 490 3 17 8 41 10 55 13 64 15 80
22 150 3 41 7 102 7 135 l1 60 -139 0 -138 0 -3 -65 c-9 -159 -16 -213 -45
-335 -101 -431 -408 -837 -807 -1067 -97 -56 -242 -120 -353 -157 -106 -35
-168 -50 -315 -76 -43 -7 -210 -19 -275 -19 -735 1 -1392 421 -1666 1065 -79
186 -128 407 -133 606 l-1 52 -134 0 c-74 1 -137 -3 -139 -7z"/>
<path d="M619 3087 c-3 -33 3 -139 12 -197 49 -322 180 -581 409 -810 87 -87
203 -180 253 -202 15 -7 27 -16 27 -19 0 -14 199 -108 300 -142 97 -33 207
-61 288 -72 17 -3 49 -8 70 -11 40 -6 287 -6 337 0 31 4 97 13 150 22 101 16
296 85 410 144 157 81 270 163 391 286 246 249 392 570 410 901 l6 112 -1531
0 c-1186 0 -1531 -3 -1532 -12z"/>
</g>
</svg>
